PathFileType	4	(X/Y/Z)	C:/Users/opensim2020/Desktop/walking_exp_matlab/subject02_walking07_straight_01.trc																																																																																																																																																				
DataRate	CameraRate	NumFrames	NumMarkers	Units	OrigDataRate	OrigDataStartFrame	OrigNumFrames																																																																																																																																																
100	100	5	50	mm	100	780	176																																																																																																																																																
Frame#	Time	LFHD			RFHD			LBHD			RBHD			C7			T10			CLAV			STRN			RBAK			LSHO			LUPA			LELB			LFRM			LWRA			LWRB			LFIN			RSHO			RUPA			RELB			RFRM			RWRA			RWRB			RFIN			LASI			RASI			LPSI			RPSI			LTHI			LKNE			LTIB			LANK			LHEE			LTOE			RTHI			RKNE			RTIB			RANK			RHEE			RTOE			*39			*40			*41			*42			*43			*44			*45			*46			*47			*48			*49		
		X1	Y1	Z1	X2	Y2	Z2	X3	Y3	Z3	X4	Y4	Z4	X5	Y5	Z5	X6	Y6	Z6	X7	Y7	Z7	X8	Y8	Z8	X9	Y9	Z9	X10	Y10	Z10	X11	Y11	Z11	X12	Y12	Z12	X13	Y13	Z13	X14	Y14	Z14	X15	Y15	Z15	X16	Y16	Z16	X17	Y17	Z17	X18	Y18	Z18	X19	Y19	Z19	X20	Y20	Z20	X21	Y21	Z21	X22	Y22	Z22	X23	Y23	Z23	X24	Y24	Z24	X25	Y25	Z25	X26	Y26	Z26	X27	Y27	Z27	X28	Y28	Z28	X29	Y29	Z29	X30	Y30	Z30	X31	Y31	Z31	X32	Y32	Z32	X33	Y33	Z33	X34	Y34	Z34	X35	Y35	Z35	X36	Y36	Z36	X37	Y37	Z37	X38	Y38	Z38	X39	Y39	Z39	X40	Y40	Z40	X41	Y41	Z41	X42	Y42	Z42	X43	Y43	Z43	X44	Y44	Z44	X45	Y45	Z45	X46	Y46	Z46	X47	Y47	Z47	X48	Y48	Z48	X49	Y49	Z49	X50	Y50	Z50
																																																																																																																																																							
133	1.32	226.64444	1735.84607	1341.81152	219.45593	1717.63025	1484.79663	118.14598	1631.71875	1324.74744	99.53686	1609.50232	1465.4126	74.92863	1503.15479	1396.25903	20.46407	1229.93396	1412.35388	214.16484	1436.71899	1392.0415	264.84244	1262.76147	1402.22937	14.25179	1332.27161	1460.98547	155.29849	1479.08044	1221.44775	189.90202	1288.64514	1130.70837	243.60017	1156.56494	1108.77051	330.39725	1053.30286	1107.81104	444.52222	991.95172	1153.91333	411.06714	962.53619	1118.92371	467.60107	930.4173	1116.74512	147.50145	1471.92676	1586.14624	89.43523	1290.41797	1669.10632	84.52103	1143.28955	1683.36816	90.57412	1023.4129	1707.61475	112.26759	888.84747	1691.45898	66.08687	895.71588	1723.81238	89.15865	826.17719	1727.1167	234.56096	961.15723	1268.51526	267.19983	960.32434	1525.30103	36.47317	1011.86176	1376.72681	44.29709	1011.42303	1490.14319	92.53098	665.28308	1239.72205	12.8624	479.1813	1278.63428	-108.77888	326.54102	1292.25635	-181.40544	111.26707	1333.73865	-219.86009	100.15585	1386.76147	-41.76605	30.99066	1327.24634	261.72989	663.94891	1611.34216	314.56412	463.6077	1566.50781	323.6622	275.21039	1568.79541	366.51465	86.41577	1535.71411	354.23462	30.37655	1479.00476	529.04944	63.83378	1552.69458	105.11552	1774.09485	1422.39282	2845.87402	1034.16772	-3357.35693	NaN	NaN	NaN	NaN	NaN	NaN	NaN	NaN	NaN	NaN	NaN	NaN	NaN	NaN	NaN	NaN	NaN	NaN	NaN	NaN	NaN	NaN	NaN	NaN	NaN	NaN	NaN
134	1.33	235.95758	1735.87292	1343.83789	229.07269	1717.44165	1486.9325	128.08342	1631.11426	1326.552	109.75594	1608.62524	1467.45068	84.43701	1502.10278	1397.80469	31.69451	1229.25769	1414.47571	224.43593	1436.35242	1393.31604	275.953	1263.06445	1403.61145	24.97898	1331.43372	1462.38635	164.74194	1478.25354	1222.73267	197.58	1287.13037	1132.58838	249.17863	1154.1073	1110.98926	334.23248	1049.46521	1109.29993	447.08902	985.5127	1154.65393	412.97113	956.89984	1120.1593	468.57431	923.48248	1117.51685	157.34174	1471.22388	1587.65039	99.92947	1289.72656	1670.8595	95.10303	1142.30066	1684.53125	101.7527	1022.53986	1709.01318	123.94572	888.0434	1692.87048	77.5126	894.68744	1724.97803	101.20872	825.5108	1728.62976	247.49646	960.66559	1269.86511	280.24124	960.3252	1526.57422	49.18558	1010.75171	1379.29248	57.72198	1010.3457	1492.78589	104.46985	665.20776	1240.48596	24.08191	479.69922	1278.60413	-100.86764	329.88925	1292.33386	-178.276	116.15614	1332.61487	-216.3582	106.31607	1385.67529	-41.38993	31.09559	1327.15942	271.58282	663.1239	1612.00513	322.52704	462.08536	1568.06213	332.09882	274.18808	1566.9137	376.26825	87.3746	1538.70142	359.04855	33.38647	1482.06189	539.23242	57.13144	1551.18469	114.0738	1773.04614	1424.21985	2845.83472	1034.03674	-3357.24756	NaN	NaN	NaN	NaN	NaN	NaN	NaN	NaN	NaN	NaN	NaN	NaN	NaN	NaN	NaN	NaN	NaN	NaN	NaN	NaN	NaN	NaN	NaN	NaN	NaN	NaN	NaN
135	1.34	245.23686	1736.79004	1345.95862	238.36533	1717.84631	1488.90649	137.97049	1631.15295	1328.30334	119.8203	1608.15613	1469.13879	94.0622	1501.73792	1399.29968	43.10014	1228.88062	1416.3197	234.61156	1436.5614	1394.67175	286.95001	1263.74512	1404.9939	35.66203	1330.96692	1463.74097	173.99025	1477.87939	1223.8186	205.22371	1285.75293	1134.4834	254.5481	1151.90222	1113.40637	336.70618	1045.18237	1111.29639	449.01184	978.88763	1155.49048	413.79462	951.04163	1121.07166	468.73264	916.26337	1118.2959	167.10953	1470.8374	1589.34644	110.45213	1289.0127	1672.3938	106.38235	1141.58215	1686.31641	113.21101	1021.76465	1710.48853	135.98518	887.34387	1694.26099	89.59124	893.87225	1726.37402	113.38555	824.71423	1729.97498	260.53156	960.28961	1271.42419	292.93045	960.46667	1527.91248	61.74873	1009.94025	1381.74451	71.20648	1010.21533	1495.48608	116.76348	665.21271	1241.19055	36.33343	480.37686	1278.33044	-91.99448	333.62982	1292.31091	-174.3976	121.64325	1331.27295	-212.10794	113.43372	1384.52844	-40.84871	31.12772	1326.85046	279.69855	663.67499	1612.89966	332.23178	463.45636	1570.59668	343.0694	276.00891	1572.70337	384.84592	87.24213	1542.29553	361.7106	35.52929	1484.97876	545.22455	52.92855	1549.42749	123.03177	1772.83728	1426.4657	2845.22949	1033.9021	-3360.19653	NaN	NaN	NaN	NaN	NaN	NaN	NaN	NaN	NaN	NaN	NaN	NaN	NaN	NaN	NaN	NaN	NaN	NaN	NaN	NaN	NaN	NaN	NaN	NaN	NaN	NaN	NaN
136	1.35	254.45279	1738.13989	1348.15576	247.31424	1718.55676	1490.83862	147.73668	1631.77832	1330.09558	129.65733	1608.2738	1470.77783	104.15916	1502.15625	1400.86841	54.29811	1228.76599	1417.82898	244.63795	1437.32813	1396.07861	297.93713	1264.81299	1406.29883	46.26268	1330.93652	1465.33289	183.25098	1477.92798	1224.83386	213.26881	1284.53845	1136.75964	259.70361	1149.87781	1115.90186	339.75958	1041.48999	1112.98303	450.26273	972.13263	1156.34985	414.09775	945.18286	1122.18201	468.06583	908.901	1119.15906	176.81277	1470.62158	1590.85754	121.3131	1288.54395	1673.84009	117.64824	1140.91663	1687.48914	124.85835	1021.1308	1711.7677	148.46983	887.10248	1695.75928	101.78832	893.3266	1727.52356	126.19	824.65491	1731.52917	273.57278	959.97968	1273.23523	305.38757	960.97498	1529.17578	74.26958	1009.67621	1383.86072	85.16254	1011.39252	1498.08777	129.61993	665.44965	1242.11438	49.79008	481.17123	1277.86487	-82.03042	337.90503	1292.17126	-169.85255	127.62093	1329.86829	-206.63393	120.76028	1383.29224	-40.73741	31.06459	1326.06152	288.02393	665.05542	1614.12769	344.2887	466.56644	1572.15564	355.72833	278.84549	1576.75269	387.07379	86.65463	1542.2356	361.88489	36.02464	1485.43884	545.39996	48.40219	1550.65051	131.96852	1773.18408	1428.90466	2845.10889	1033.97266	-3360.21313	NaN	NaN	NaN	NaN	NaN	NaN	NaN	NaN	NaN	NaN	NaN	NaN	NaN	NaN	NaN	NaN	NaN	NaN	NaN	NaN	NaN	NaN	NaN	NaN	NaN	NaN	NaN
137	1.36	263.40939	1739.57092	1350.25854	256.41956	1719.55957	1492.87195	157.43896	1632.78589	1331.88367	139.40994	1608.71838	1472.48193	114.59909	1503.00793	1402.48499	65.40395	1229.06689	1419.09424	254.6171	1438.52771	1397.50879	309.01974	1266.28662	1407.67871	57.02588	1331.06958	1466.80066	192.64439	1478.34521	1225.71191	220.83307	1283.55334	1138.84924	264.71759	1148.05713	1118.56567	341.33878	1037.89722	1114.85254	450.78387	965.33746	1157.25073	413.50833	939.44324	1123.42993	466.48676	901.63171	1120.03113	187.15546	1471.13843	1592.97375	132.16806	1288.323	1675.10254	129.63643	1140.99219	1689.18555	137.06731	1021.07977	1713.16663	161.26828	887.19391	1697.0946	114.69948	893.27606	1728.97546	139.35728	824.73395	1732.93323	286.53345	959.93115	1275.32178	317.78448	962.03607	1530.60681	86.99383	1010.20074	1385.44531	97.49218	1014.01447	1500.14502	142.98358	665.78131	1243.17419	64.65794	481.91229	1277.27454	-70.64604	342.24527	1291.77673	-164.2901	134.2614	1328.40063	-200.04787	129.15793	1382.38379	-40.52636	31.26491	1325.31787	297.31418	666.94714	1615.21741	357.21191	469.10919	1572.48853	367.10367	280.77054	1579.27954	388.22437	88.42039	1541.84766	362.23621	36.54475	1485.98779	546.21497	46.65261	1549.1239	140.60797	1773.57361	1430.77222	2845.7395	1034.07373	-3357.48169	NaN	NaN	NaN	NaN	NaN	NaN	NaN	NaN	NaN	NaN	NaN	NaN	NaN	NaN	NaN	NaN	NaN	NaN	NaN	NaN	NaN	NaN	NaN	NaN	NaN	NaN	NaN
